# xmcd
#
# Track frame offsets:
#	150
#	11857
#	26962
#	39325
#	52090
#	68932
#	77872
#	88817
#	100832
#	114805
#	123668
#	134588
#	146076
#	158256
#	169856
#	184636
#	197673
#	218994
#
# Disc length: 2995
#
# Revision: 1
# Processed by: cddbd v1.5.1PL0 Copyright (c) Steve Scherf et al.
# Submitted via: CDex 1.40Release
# Normalized: r0:DSETVAR1,TDELIM( - ),TSWAP
#
DISCID=030bb112
DTITLE=Various Artist - It's Country Time - For The Good Times
DYEAR=1999
DGENRE=Country
TTITLE0=Donna Fargo - The Happiest Girl In The Whole USA
TTITLE1=Kenny Rogers - For The Good Times
TTITLE2=Johnny Paycheck - I'm Not Looking Back Anymore
TTITLE3=Bobby Bare - Tender Years
TTITLE4=Willie Nelson - I Let My Mind Wonder
TTITLE5=Waylon Jennings - Mean Old Greyhound Bus
TTITLE6=Patsy Cline - I Cried All The Way To The Altar
TTITLE7=Don Williams - On Her Way To Be A Woman
TTITLE8=Billie Jo Spears - Mr Walker It's All Over
TTITLE9=Johnny Cash - Two Timin'  Women
TTITLE10=Freddy Fender - Suger Coated Love
TTITLE11=Oak Ridge Boys - No One Cared As Much
TTITLE12=Dolly Parton - Two Little Orphans
TTITLE13=Doe Watson - Tom Dooley
TTITLE14=Willie Nelson - And So Will You My Love
TTITLE15=Kenny Rogers - Sleep Vomes Ease
TTITLE16=The Everly Brothers - Love Is Strange
TTITLE17=The Hollywood Filmfestival Orchestra - Silverado
EXTD=YEAR: 1999 ID3G: 2
EXTT0=
EXTT1=
EXTT2=
EXTT3=
EXTT4=
EXTT5=
EXTT6=
EXTT7=
EXTT8=
EXTT9=
EXTT10=
EXTT11=
EXTT12=
EXTT13=
EXTT14=
EXTT15=
EXTT16=
EXTT17=
PLAYORDER=
